<svg width="320" height="360" viewBox="0 0 320 360" fill="none" xmlns="http://www.w3.org/2000/svg">
<g clip-path="url(#clip0_5_19)">
<path d="M20.961 227.22L24.687 231.878L22.824 225.822C22.358 223.027 19.098 226.288 20.961 227.22ZM25.153 224.425C26.55 226.754 27.948 229.083 27.948 231.412C27.948 234.673 30.743 236.07 33.071 237.001C29.81 233.275 27.947 223.027 25.153 224.425ZM204.017 26.929C211.935 26.929 219.388 25.997 227.773 27.86C248.268 32.984 265.502 43.231 277.147 57.671L309.753 109.84C311.15 122.882 313.945 137.322 313.479 153.159C316.74 153.159 316.274 148.501 320 147.569C316.274 156.885 314.41 168.53 313.479 182.038C311.15 174.585 313.479 163.406 313.945 157.351C310.684 162.475 308.821 158.748 308.821 156.419C309.287 152.693 307.424 153.158 306.026 151.761C300.902 147.103 297.642 141.979 293.916 134.061C296.245 128.006 296.711 119.156 289.258 114.498C286.929 113.101 284.134 110.772 282.737 107.045C280.874 101.921 277.613 95.866 278.544 87.948C279.01 85.619 271.557 93.072 267.365 89.811C249.199 77.235 231.033 62.795 209.141 50.684C197.496 50.684 189.112 46.492 184.92 41.368C181.194 36.71 183.988 30.655 189.578 30.189C192.839 30.189 196.565 29.257 199.36 31.121C199.826 29.258 201.689 26.929 204.017 26.929ZM157.904 16.215L158.836 16.681C163.494 17.613 165.823 24.134 170.946 21.805C170.946 25.066 171.412 28.326 170.48 30.655C169.083 34.381 164.89 34.381 161.63 34.381C130.422 32.518 112.256 45.56 93.159 56.739C88.035 60 82.446 62.329 78.253 66.521C58.224 85.153 36.332 102.387 31.208 136.856L27.016 175.051C26.55 179.243 21.892 183.435 22.824 188.559L26.084 211.383C22.823 208.122 20.96 212.315 21.892 214.178C22.358 215.575 24.221 220.233 27.016 216.041C30.742 223.028 34.469 236.536 39.592 242.591C55.429 261.223 75.924 277.991 92.693 294.76C96.885 293.828 100.146 293.828 101.077 291.033C102.474 293.828 99.68 296.623 97.351 297.089C104.804 301.747 113.188 305.939 124.367 306.87C138.807 307.802 152.315 310.131 164.891 313.392C171.412 311.529 177.933 310.597 184.92 310.131C187.249 310.131 188.646 306.405 191.441 305.473L191.907 300.815C194.702 305.007 194.236 299.418 192.373 296.623C195.634 299.418 196.565 301.747 197.962 303.61C197.962 302.213 201.688 297.089 201.689 303.144L202.62 297.089C204.017 296.157 204.483 302.213 205.881 298.02C207.278 293.828 210.073 297.088 212.868 295.691C211.936 297.554 212.402 301.281 215.662 298.952L219.389 295.691C221.718 301.281 225.444 298.952 227.307 298.02C247.802 284.978 268.297 269.607 287.86 254.236L287.394 260.291L289.723 252.838C292.052 255.167 293.915 253.304 294.847 251.907C297.642 247.249 301.368 242.591 307.424 238.399C299.971 258.428 291.121 274.265 279.942 287.307L275.284 292.897C275.284 296.158 274.352 300.35 270.626 300.815C268.763 301.281 265.036 299.883 262.242 302.678C260.845 304.541 265.503 308.268 261.776 305.473C258.515 303.144 255.255 305.473 251.528 306.405C248.733 307.337 253.391 310.131 254.323 311.994C255.255 313.857 256.186 315.72 255.721 318.05L250.597 312.46C244.542 315.721 240.815 321.776 235.691 326.434C233.362 328.297 234.294 331.558 234.294 334.352C231.033 334.352 227.307 333.42 225.444 335.284C224.047 337.147 224.512 339.942 224.512 342.737C219.854 342.271 219.388 335.284 215.197 336.681C211.005 337.613 206.347 338.078 202.62 340.408C205.415 345.998 197.962 342.737 198.894 343.668C191.907 339.476 185.852 336.215 178.399 339.01C162.562 333.886 142.999 336.215 128.559 338.079C128.559 335.75 129.025 333.421 128.093 332.955C127.161 335.284 124.367 334.352 124.833 334.352C115.983 328.297 107.133 324.57 97.817 319.447C89.433 320.379 81.514 316.186 79.185 313.857C72.664 307.802 65.211 311.062 59.156 309.665C46.114 306.404 41.456 292.896 40.058 283.581C39.126 278.923 35.4 277.06 34.003 277.525C27.948 257.962 18.632 240.262 11.179 222.096C9.316 217.438 9.782 212.78 9.782 207.656C12.111 208.588 14.44 208.122 13.974 204.862C11.645 189.491 6.056 177.846 0 166.667C3.261 150.83 3.726 132.198 11.179 118.224C17.7 105.648 29.811 99.126 38.195 88.413C40.99 84.687 40.99 79.563 43.785 76.303C53.101 66.987 62.417 57.205 72.664 48.821C77.322 45.095 82.911 48.821 89.898 47.424C92.227 39.04 101.543 31.587 110.393 33.916C114.119 34.848 121.572 25.066 123.901 24.134C127.627 22.737 125.764 27.86 125.764 31.121C134.614 24.134 146.725 20.408 157.904 16.215Z" fill="#9E6800"/>
<g clip-path="url(#clip1_5_19)">
<g clip-path="url(#clip2_5_19)">
<g clip-path="url(#clip3_5_19)">
<g clip-path="url(#clip4_5_19)">
<g clip-path="url(#clip5_5_19)">
<g clip-path="url(#clip6_5_19)">
<g clip-path="url(#clip7_5_19)">
<path d="M135.317 270H113.216V165.425H132.141L134.809 185.197L128.035 179.905C133.736 173.977 139.692 169.743 145.901 167.203C152.111 164.663 158.603 163.393 165.377 163.393C179.856 163.393 190.37 167.824 196.919 176.687C203.495 185.55 206.784 197.32 206.784 211.997V270H184.641V212.928C184.641 202.428 182.778 194.709 179.052 189.769C175.298 184.83 168.976 182.36 160.085 182.36C153.536 182.36 147.764 183.856 142.768 186.848C137.801 189.868 134.188 194.328 131.93 200.227L135.317 188.076V270Z" fill="#ED1703"/>
</g>
</g>
</g>
</g>
<g clip-path="url(#clip8_5_19)">
<g clip-path="url(#clip9_5_19)">
<path d="M167.268 140.443C167.403 140.828 167.769 141.088 168.174 141.088H179.153C179.577 141.088 179.944 140.819 180.069 140.414L183.076 130.88C183.192 130.524 183.086 130.129 182.797 129.878L174.122 122.06C173.755 121.733 173.206 121.733 172.839 122.06L164.164 129.801C163.875 130.061 163.769 130.466 163.894 130.842L167.268 140.443ZM173.495 124.065L181.071 130.89L178.459 139.161H168.868L165.947 130.803L173.495 124.065Z" fill="#FF908B"/>
<path d="M187.954 90H132.046C131.516 90 131.082 90.4338 131.082 90.9639V146.872C131.082 147.402 131.516 147.836 132.046 147.836H187.954C188.484 147.836 188.918 147.402 188.918 146.872V90.9639C188.918 90.4338 188.484 90 187.954 90ZM186.99 145.908H133.01V91.9279H186.99V145.908Z" fill="#FF908B"/>
<path d="M137.829 115.062H155.18C155.71 115.062 156.144 114.629 156.144 114.098V96.7476C156.144 96.2174 155.71 95.7836 155.18 95.7836H137.829C137.299 95.7836 136.865 96.2174 136.865 96.7476V114.098C136.865 114.629 137.299 115.062 137.829 115.062ZM138.793 97.7115H154.216V113.134H138.793V97.7115Z" fill="#FF908B"/>
<path d="M164.82 115.062H182.17C182.18 115.062 182.18 115.062 182.19 115.062C182.72 115.062 183.154 114.628 183.154 114.098C183.154 113.877 183.077 113.674 182.951 113.51L174.353 96.3137C174.025 95.6583 172.955 95.6583 172.628 96.3137L163.952 113.665C163.798 113.963 163.817 114.32 163.991 114.6C164.174 114.889 164.482 115.062 164.82 115.062ZM173.495 98.9067L180.609 113.134H166.381L173.495 98.9067Z" fill="#FF908B"/>
<path d="M146.505 142.052C151.816 142.052 156.144 137.724 156.144 132.413C156.144 127.102 151.816 122.774 146.505 122.774C141.194 122.774 136.865 127.102 136.865 132.413C136.865 137.724 141.194 142.052 146.505 142.052ZM146.505 124.702C150.756 124.702 154.216 128.162 154.216 132.413C154.216 136.664 150.756 140.125 146.505 140.125C142.254 140.125 138.793 136.664 138.793 132.413C138.793 128.162 142.254 124.702 146.505 124.702Z" fill="#FF908B"/>
</g>
</g>
</g>
</g>
</g>
</g>
<defs>
<clipPath id="clip0_5_19">
<rect width="320" height="360" fill="white"/>
</clipPath>
<clipPath id="clip1_5_19">
<rect width="93.5858" height="180" fill="white" transform="translate(113.207 90)"/>
</clipPath>
<clipPath id="clip2_5_19">
<rect width="93.5858" height="180" fill="white" transform="translate(113.207 90)"/>
</clipPath>
<clipPath id="clip3_5_19">
<rect width="93.5858" height="180" fill="white" transform="translate(113.207 90)"/>
</clipPath>
<clipPath id="clip4_5_19">
<rect width="93.5858" height="106.607" fill="white" transform="translate(113.207 163.393)"/>
</clipPath>
<clipPath id="clip5_5_19">
<rect width="93.5858" height="106.607" fill="white" transform="translate(113.207 163.393)"/>
</clipPath>
<clipPath id="clip6_5_19">
<rect width="93.5858" height="106.607" fill="white" transform="translate(113.207 163.393)"/>
</clipPath>
<clipPath id="clip7_5_19">
<rect width="93.5858" height="106.607" fill="white" transform="translate(113.207 163.393)"/>
</clipPath>
<clipPath id="clip8_5_19">
<rect width="57.836" height="57.836" fill="white" transform="translate(131.082 90)"/>
</clipPath>
<clipPath id="clip9_5_19">
<rect width="57.836" height="57.836" fill="white" transform="translate(131.082 90)"/>
</clipPath>
</defs>
</svg>
